<svg id="Layer_1" data-name="Layer 1" xmlns="http://www.w3.org/2000/svg" viewBox="0 0 323.59 141.44"><defs><style>.cls-1{fill:#0c78ff;}.cls-2{fill:#0c78fe;}.cls-3{fill:none;stroke:#0c78ff;stroke-linecap:round;stroke-miterlimit:10;stroke-width:6.24px;}.cls-4{fill:#6baefd;}.cls-5{fill:#bcddfe;}</style></defs><title>Artboard 1</title><path class="cls-1" d="M292.12,104.57v21.15h-265V104.57h265m7-7h-279v35.15h279V97.57Z"/><path class="cls-2" d="M298.12,12.52A6.83,6.83,0,0,1,305,19.34V90.57a6.83,6.83,0,0,1-6.83,6.82h-277a6.83,6.83,0,0,1-6.82-6.82V19.34a6.83,6.83,0,0,1,6.82-6.82h277m0-7.18h-277a14,14,0,0,0-14,14V90.57a14,14,0,0,0,14,14h277a14,14,0,0,0,14-14V19.34a14,14,0,0,0-14-14Z"/><line class="cls-3" x1="72.62" y1="45.59" x2="72.62" y2="60.59"/><line class="cls-3" x1="58.62" y1="45.59" x2="58.62" y2="60.59"/><line class="cls-3" x1="44.62" y1="45.59" x2="44.62" y2="60.59"/><rect class="cls-2" x="7.12" y="59.03" width="124.33" height="7"/><path class="cls-4" d="M152.69,81.74a20.73,20.73,0,1,1,0-41.45H308.62V81.74Z"/><path class="cls-2" d="M305.12,43.79V78.24H152.69a17.23,17.23,0,1,1,0-34.45H305.12m7-7H152.69A24.23,24.23,0,0,0,128.46,61h0a24.22,24.22,0,0,0,24.23,24.22H312.12V36.79Z"/><rect class="cls-5" x="281" y="63.21" width="8.5" height="8.5"/><rect class="cls-5" x="265.84" y="63.21" width="8.5" height="8.5"/><rect class="cls-5" x="250.68" y="63.21" width="8.5" height="8.5"/><rect class="cls-5" x="235.52" y="63.21" width="8.5" height="8.5"/><rect class="cls-5" x="220.36" y="63.21" width="8.5" height="8.5"/><rect class="cls-5" x="205.2" y="63.21" width="8.5" height="8.5"/><rect class="cls-5" x="190.04" y="63.21" width="8.5" height="8.5"/><rect class="cls-5" x="174.88" y="63.21" width="8.5" height="8.5"/><rect class="cls-5" x="159.72" y="63.21" width="8.5" height="8.5"/><rect class="cls-5" x="281" y="50.41" width="8.5" height="8.5"/><rect class="cls-5" x="265.84" y="50.41" width="8.5" height="8.5"/><rect class="cls-5" x="250.68" y="50.41" width="8.5" height="8.5"/><rect class="cls-5" x="235.52" y="50.41" width="8.5" height="8.5"/><rect class="cls-5" x="220.36" y="50.41" width="8.5" height="8.5"/><rect class="cls-5" x="205.2" y="50.41" width="8.5" height="8.5"/><rect class="cls-5" x="190.04" y="50.41" width="8.5" height="8.5"/><rect class="cls-5" x="174.88" y="50.41" width="8.5" height="8.5"/><rect class="cls-5" x="159.72" y="50.41" width="8.5" height="8.5"/></svg>